<?xml version="1.0" encoding="UTF-8" standalone="no"?>
<svg width="980px" height="400px" viewBox="0 0 980 400" version="1.1" xmlns="http://www.w3.org/2000/svg" xmlns:xlink="http://www.w3.org/1999/xlink">
    <!-- Generator: Sketch 3.7.1 (28215) - http://www.bohemiancoding.com/sketch -->
    <title>icon</title>
    <desc>Created with Sketch.</desc>
    <defs></defs>
    <g id="Page-1" stroke="none" stroke-width="1" fill="none" fill-rule="evenodd">
        <circle id="Oval-1" fill="#E0E0E0" cx="490" cy="200" r="128"></circle>
        <g id="noun_70137_cc" transform="translate(432.000000, 111.000000)" fill="#202020">
            <g id="Group">
                <path d="M109.345455,68.1960396 L64.0893939,68.1960396 L64.0893939,45.3108911 C63.9090909,37.9227723 66.9742424,31.6158416 72.3833333,28.1920792 C79.5954545,23.5069307 89.1515152,25.6693069 93.8393939,32.8772277 C97.4454545,38.4633663 95.8227273,45.6712871 90.2333333,49.2752475 C86.0863636,51.9782178 80.4969697,50.7168317 77.7924242,46.5722772 C75.8090909,43.5089109 76.7106061,39.3643564 79.7757576,37.2019802 C82.119697,35.760396 85.0045455,36.3009901 86.6272727,38.6435644 C87.7090909,40.2653465 87.1681818,42.4277228 85.5454545,43.3287129 C84.4636364,44.049505 83.0212121,43.6891089 82.480303,42.6079208 C81.7590909,41.5267327 80.3166667,41.1663366 79.0545455,41.8871287 C77.9727273,42.6079208 77.6121212,44.049505 78.3333333,45.3108911 C80.4969697,48.5544554 84.8242424,49.6356436 88.25,47.4732673 C92.0363636,44.950495 93.1181818,39.9049505 90.7742424,35.9405941 C87.8893939,31.4356436 81.7590909,30.1742574 77.2515152,33.0574257 C71.8424242,36.4811881 70.4,43.6891089 73.8257576,49.0950495 C77.9727273,55.5821782 86.6272727,57.3841584 92.9378788,53.239604 C96.7242424,50.8970297 99.2484848,47.1128713 100.15,42.7881188 C101.051515,38.4633663 100.330303,33.9584158 97.8060606,30.1742574 C91.6757576,20.8039604 79.0545455,18.1009901 69.6787879,24.0475248 C67.5151515,25.4891089 65.5318182,27.2910891 63.9090909,29.4534653 L63.9090909,18.2811881 C63.7287879,11.9742574 60.4833333,6.02772277 55.0742424,2.6039604 C47.8621212,-2.08118812 38.1257576,-0.099009901 33.4378788,7.28910891 C31.4545455,10.1722772 30.9136364,13.7762376 31.6348485,17.2 C32.3560606,20.6237624 34.3393939,23.5069307 37.4045455,25.4891089 C42.4530303,28.7326733 49.3045455,27.2910891 52.55,22.2455446 C55.2545455,17.9207921 54.1727273,12.1544554 49.8454545,9.45148515 C48.0424242,8.37029703 45.8787879,7.82970297 43.8954545,8.37029703 C41.9121212,8.73069307 40.1090909,9.99207921 38.8469697,11.7940594 C38.1257576,12.8752475 38.4863636,14.4970297 39.5681818,15.2178218 C40.65,15.9386139 42.2727273,15.5782178 42.9939394,14.4970297 C43.3545455,13.7762376 44.0757576,13.4158416 44.9772727,13.2356436 C45.6984848,13.0554455 46.6,13.2356436 47.3212121,13.5960396 C48.4030303,14.3168317 48.9439394,15.2178218 49.3045455,16.2990099 C49.4848485,17.380198 49.3045455,18.6415842 48.7636364,19.7227723 C46.9606061,22.6059406 43.1742424,23.3267327 40.2893939,21.5247525 C38.4863636,20.2633663 37.2242424,18.4613861 36.6833333,16.2990099 C36.1424242,14.1366337 36.6833333,11.9742574 37.7651515,9.99207921 C41.0106061,4.94653465 47.8621212,3.5049505 52.9106061,6.74851485 C56.8772727,9.27128713 59.4015152,13.7762376 59.4015152,18.4613861 L59.4015152,37.0217822 L59.4015152,41.7069307 C59.4015152,42.0673267 59.4015152,42.2475248 59.5818182,42.4277228 C59.5818182,43.5089109 59.4015152,44.590099 59.4015152,45.4910891 L59.4015152,51.4376238 C57.9590909,48.7346535 55.9757576,46.2118812 53.2712121,44.229703 C48.4030303,40.8059406 42.4530303,40.0851485 37.2242424,41.5267327 C37.5848485,47.1128713 40.469697,52.3386139 45.3378788,55.7623762 C49.6651515,58.8257426 54.7136364,59.7267327 59.5818182,58.8257426 L59.5818182,68.1960396 L18.2924242,68.1960396 C13.7848485,75.9445545 11.2606061,84.9544554 11.2606061,94.5049505 L11.2606061,95.9465347 L0.442424242,122.976238 C-0.81969697,126.219802 0.983333333,128.922772 4.40909091,128.922772 L11.2606061,128.922772 L11.2606061,143.69901 C11.2606061,155.051485 20.4560606,164.421782 31.9954545,164.421782 L40.469697,164.421782 L40.469697,180.459406 L97.2651515,180.459406 L97.2651515,135.229703 C109.165152,125.679208 116.557576,110.90297 116.557576,94.5049505 C116.377273,84.9544554 113.672727,75.9445545 109.345455,68.1960396 L109.345455,68.1960396 Z" id="Shape"></path>
            </g>
        </g>
    </g>
</svg>